<svg width="0" height="0" class="hidden">
  <symbol version="1.1" id="01d" xmlns="http://www.w3.org/2000/svg" xmlns:xlink="http://www.w3.org/1999/xlink" x="0px" y="0px" xml:space="preserve" viewBox="0 0 30 30">
    <path d="M4.37,14.62c0-0.24,0.08-0.45,0.25-0.62c0.17-0.16,0.38-0.24,0.6-0.24h2.04c0.23,0,0.42,0.08,0.58,0.25
	c0.15,0.17,0.23,0.37,0.23,0.61S8,15.06,7.85,15.23c-0.15,0.17-0.35,0.25-0.58,0.25H5.23c-0.23,0-0.43-0.08-0.6-0.25
	C4.46,15.06,4.37,14.86,4.37,14.62z M7.23,21.55c0-0.23,0.08-0.43,0.23-0.61l1.47-1.43c0.15-0.16,0.35-0.23,0.59-0.23
	c0.24,0,0.44,0.08,0.6,0.23s0.24,0.34,0.24,0.57c0,0.24-0.08,0.46-0.24,0.64L8.7,22.14c-0.41,0.32-0.82,0.32-1.23,0
	C7.31,21.98,7.23,21.78,7.23,21.55z M7.23,7.71c0-0.23,0.08-0.43,0.23-0.61C7.66,6.93,7.87,6.85,8.1,6.85
	c0.22,0,0.42,0.08,0.59,0.24l1.43,1.47c0.16,0.15,0.24,0.35,0.24,0.59c0,0.24-0.08,0.44-0.24,0.6s-0.36,0.24-0.6,0.24
	c-0.24,0-0.44-0.08-0.59-0.24L7.47,8.32C7.31,8.16,7.23,7.95,7.23,7.71z M9.78,14.62c0-0.93,0.23-1.8,0.7-2.6s1.1-1.44,1.91-1.91
	s1.67-0.7,2.6-0.7c0.7,0,1.37,0.14,2.02,0.42c0.64,0.28,1.2,0.65,1.66,1.12c0.47,0.47,0.84,1.02,1.11,1.66
	c0.27,0.64,0.41,1.32,0.41,2.02c0,0.94-0.23,1.81-0.7,2.61c-0.47,0.8-1.1,1.43-1.9,1.9c-0.8,0.47-1.67,0.7-2.61,0.7
	s-1.81-0.23-2.61-0.7c-0.8-0.47-1.43-1.1-1.9-1.9C10.02,16.43,9.78,15.56,9.78,14.62z M11.48,14.62c0,0.98,0.34,1.81,1.03,2.5
	c0.68,0.69,1.51,1.04,2.49,1.04s1.81-0.35,2.5-1.04s1.04-1.52,1.04-2.5c0-0.96-0.35-1.78-1.04-2.47c-0.69-0.68-1.52-1.02-2.5-1.02
	c-0.97,0-1.8,0.34-2.48,1.02C11.82,12.84,11.48,13.66,11.48,14.62z M14.14,22.4c0-0.24,0.08-0.44,0.25-0.6s0.37-0.24,0.6-0.24
	c0.24,0,0.45,0.08,0.61,0.24s0.24,0.36,0.24,0.6v1.99c0,0.24-0.08,0.45-0.25,0.62c-0.17,0.17-0.37,0.25-0.6,0.25
	s-0.44-0.08-0.6-0.25c-0.17-0.17-0.25-0.38-0.25-0.62V22.4z M14.14,6.9V4.86c0-0.23,0.08-0.43,0.25-0.6C14.56,4.09,14.76,4,15,4
	s0.43,0.08,0.6,0.25c0.17,0.17,0.25,0.37,0.25,0.6V6.9c0,0.23-0.08,0.42-0.25,0.58S15.23,7.71,15,7.71s-0.44-0.08-0.6-0.23
	S14.14,7.13,14.14,6.9z M19.66,20.08c0-0.23,0.08-0.42,0.23-0.56c0.15-0.16,0.34-0.23,0.56-0.23c0.24,0,0.44,0.08,0.6,0.23
	l1.46,1.43c0.16,0.17,0.24,0.38,0.24,0.61c0,0.23-0.08,0.43-0.24,0.59c-0.4,0.31-0.8,0.31-1.2,0l-1.42-1.42
	C19.74,20.55,19.66,20.34,19.66,20.08z M19.66,9.16c0-0.25,0.08-0.45,0.23-0.59l1.42-1.47c0.17-0.16,0.37-0.24,0.59-0.24
	c0.24,0,0.44,0.08,0.6,0.25c0.17,0.17,0.25,0.37,0.25,0.6c0,0.25-0.08,0.46-0.24,0.62l-1.46,1.43c-0.18,0.16-0.38,0.24-0.6,0.24
	c-0.23,0-0.41-0.08-0.56-0.24S19.66,9.4,19.66,9.16z M21.92,14.62c0-0.24,0.08-0.44,0.24-0.62c0.16-0.16,0.35-0.24,0.57-0.24h2.02
	c0.23,0,0.43,0.09,0.6,0.26c0.17,0.17,0.26,0.37,0.26,0.6s-0.09,0.43-0.26,0.6c-0.17,0.17-0.37,0.25-0.6,0.25h-2.02
	c-0.23,0-0.43-0.08-0.58-0.25S21.92,14.86,21.92,14.62z"></path>
  </symbol>
  <symbol version="1.1" id="01n" xmlns="http://www.w3.org/2000/svg" xmlns:xlink="http://www.w3.org/1999/xlink" x="0px" y="0px" xml:space="preserve" viewBox="0 0 30 30">
    <path d="M7.91,14.48c0-0.96,0.19-1.87,0.56-2.75s0.88-1.63,1.51-2.26c0.63-0.63,1.39-1.14,2.27-1.52c0.88-0.38,1.8-0.57,2.75-0.57
	h1.14c0.16,0.04,0.23,0.14,0.23,0.28l0.05,0.88c0.04,1.27,0.49,2.35,1.37,3.24c0.88,0.89,1.94,1.37,3.19,1.42l0.82,0.07
	c0.16,0,0.24,0.08,0.24,0.23v0.98c0.01,1.28-0.3,2.47-0.93,3.56c-0.63,1.09-1.48,1.95-2.57,2.59c-1.08,0.63-2.27,0.95-3.55,0.95
	c-0.97,0-1.9-0.19-2.78-0.56s-1.63-0.88-2.26-1.51c-0.63-0.63-1.13-1.39-1.5-2.26C8.1,16.37,7.91,15.45,7.91,14.48z M9.74,14.48
	c0,0.76,0.15,1.48,0.45,2.16c0.3,0.67,0.7,1.24,1.19,1.7c0.49,0.46,1.05,0.82,1.69,1.08c0.63,0.27,1.28,0.4,1.94,0.4
	c0.58,0,1.17-0.11,1.76-0.34c0.59-0.23,1.14-0.55,1.65-0.96c0.51-0.41,0.94-0.93,1.31-1.57c0.37-0.64,0.6-1.33,0.71-2.09
	c-1.63-0.34-2.94-1.04-3.92-2.1s-1.55-2.3-1.7-3.74C13.86,9.08,13,9.37,12.21,9.9c-0.78,0.53-1.39,1.2-1.82,2.02
	C9.96,12.74,9.74,13.59,9.74,14.48z"></path>
  </symbol>
  <symbol version="1.1" id="02d" xmlns="http://www.w3.org/2000/svg" xmlns:xlink="http://www.w3.org/1999/xlink" x="0px" y="0px" xml:space="preserve" viewBox="0 0 30 30">
    <path d="M1.56,16.9c0,0.9,0.22,1.73,0.66,2.49s1.04,1.36,1.8,1.8c0.76,0.44,1.58,0.66,2.47,0.66h10.83c0.89,0,1.72-0.22,2.48-0.66
	c0.76-0.44,1.37-1.04,1.81-1.8c0.44-0.76,0.67-1.59,0.67-2.49c0-0.66-0.14-1.33-0.42-2C22.62,13.98,23,12.87,23,11.6
	c0-0.71-0.14-1.39-0.41-2.04c-0.27-0.65-0.65-1.2-1.12-1.67C21,7.42,20.45,7.04,19.8,6.77c-0.65-0.28-1.33-0.41-2.04-0.41
	c-1.48,0-2.77,0.58-3.88,1.74c-0.77-0.44-1.67-0.66-2.7-0.66c-1.41,0-2.65,0.44-3.73,1.31c-1.08,0.87-1.78,1.99-2.08,3.35
	c-1.12,0.26-2.03,0.83-2.74,1.73S1.56,15.75,1.56,16.9z M3.27,16.9c0-0.84,0.28-1.56,0.84-2.17c0.56-0.61,1.26-0.96,2.1-1.06
	l0.5-0.03c0.12,0,0.19-0.06,0.19-0.18l0.07-0.54c0.14-1.08,0.61-1.99,1.41-2.71c0.8-0.73,1.74-1.09,2.81-1.09
	c1.1,0,2.06,0.37,2.87,1.1c0.82,0.73,1.27,1.63,1.37,2.71l0.07,0.58c0.02,0.11,0.09,0.17,0.21,0.17h1.61c0.88,0,1.64,0.32,2.28,0.96
	c0.64,0.64,0.96,1.39,0.96,2.27c0,0.91-0.32,1.68-0.95,2.32c-0.63,0.64-1.4,0.96-2.28,0.96H6.49c-0.88,0-1.63-0.32-2.27-0.97
	C3.59,18.57,3.27,17.8,3.27,16.9z M9.97,4.63c0,0.24,0.08,0.45,0.24,0.63l0.66,0.64c0.25,0.19,0.46,0.27,0.64,0.25
	c0.21,0,0.39-0.09,0.55-0.26s0.24-0.38,0.24-0.62c0-0.24-0.09-0.44-0.26-0.59l-0.59-0.66c-0.18-0.16-0.38-0.24-0.61-0.24
	c-0.24,0-0.45,0.08-0.62,0.25C10.05,4.19,9.97,4.39,9.97,4.63z M15.31,9.06c0.69-0.67,1.51-1,2.45-1c0.99,0,1.83,0.34,2.52,1.03
	c0.69,0.69,1.04,1.52,1.04,2.51c0,0.62-0.17,1.24-0.51,1.84C19.84,12.48,18.68,12,17.32,12H17C16.75,10.91,16.19,9.93,15.31,9.06z
	 M16.94,3.78c0,0.26,0.08,0.46,0.23,0.62s0.35,0.23,0.59,0.23c0.26,0,0.46-0.08,0.62-0.23c0.16-0.16,0.23-0.36,0.23-0.62V1.73
	c0-0.24-0.08-0.43-0.24-0.59s-0.36-0.23-0.61-0.23c-0.24,0-0.43,0.08-0.59,0.23s-0.23,0.35-0.23,0.59V3.78z M22.46,6.07
	c0,0.26,0.07,0.46,0.22,0.62c0.21,0.16,0.42,0.24,0.62,0.24c0.18,0,0.38-0.08,0.59-0.24l1.43-1.43c0.16-0.18,0.24-0.39,0.24-0.64
	c0-0.24-0.08-0.44-0.24-0.6c-0.16-0.16-0.36-0.24-0.59-0.24c-0.24,0-0.43,0.08-0.58,0.24l-1.47,1.43
	C22.53,5.64,22.46,5.84,22.46,6.07z M23.25,17.91c0,0.24,0.08,0.45,0.25,0.63l0.65,0.63c0.15,0.16,0.34,0.24,0.58,0.24
	s0.44-0.08,0.6-0.25c0.16-0.17,0.24-0.37,0.24-0.62c0-0.22-0.08-0.42-0.24-0.58l-0.65-0.65c-0.16-0.16-0.35-0.24-0.57-0.24
	c-0.24,0-0.44,0.08-0.6,0.24C23.34,17.47,23.25,17.67,23.25,17.91z M24.72,11.6c0,0.23,0.09,0.42,0.26,0.58
	c0.16,0.16,0.37,0.24,0.61,0.24h2.04c0.23,0,0.42-0.08,0.58-0.23s0.23-0.35,0.23-0.59c0-0.24-0.08-0.44-0.23-0.6
	s-0.35-0.25-0.58-0.25h-2.04c-0.24,0-0.44,0.08-0.61,0.25C24.8,11.17,24.72,11.37,24.72,11.6z"></path>
  </symbol>
  <symbol version="1.1" id="02n" xmlns="http://www.w3.org/2000/svg" xmlns:xlink="http://www.w3.org/1999/xlink" x="0px" y="0px" xml:space="preserve" viewBox="0 0 30 30">
    <path d="M4.3,16.89c0,0.89,0.22,1.72,0.66,2.48s1.03,1.36,1.79,1.8s1.58,0.67,2.48,0.67h10.81c0.89,0,1.72-0.22,2.48-0.67
	s1.36-1.05,1.8-1.8c0.44-0.76,0.67-1.59,0.67-2.48c0-0.64-0.14-1.3-0.42-2c0.76-0.93,1.13-2.03,1.13-3.3c0-0.95-0.23-1.83-0.69-2.63
	c-0.46-0.8-1.1-1.44-1.9-1.91c-0.8-0.47-1.68-0.7-2.63-0.7c-1.49,0-2.78,0.58-3.87,1.74c-0.76-0.43-1.66-0.65-2.69-0.65
	c-1.41,0-2.65,0.43-3.73,1.3s-1.77,1.98-2.08,3.35c-1.12,0.25-2.03,0.82-2.74,1.72C4.66,14.71,4.3,15.74,4.3,16.89z M6.01,16.89
	c0-0.83,0.28-1.55,0.83-2.16c0.56-0.61,1.26-0.96,2.1-1.06l0.68-0.03l0.07-0.72c0.14-1.08,0.61-1.99,1.41-2.71
	c0.8-0.73,1.74-1.09,2.81-1.09c1.09,0,2.05,0.37,2.86,1.1s1.27,1.63,1.38,2.71l0.1,0.75h1.78c0.88,0,1.64,0.32,2.28,0.95
	s0.96,1.39,0.96,2.26c0,0.9-0.32,1.67-0.95,2.32s-1.4,0.97-2.28,0.97H9.23c-0.87,0-1.62-0.32-2.26-0.97
	C6.33,18.55,6.01,17.78,6.01,16.89z M18.04,9.06c0.69-0.66,1.5-0.99,2.44-0.99c0.99,0,1.83,0.34,2.52,1.03
	c0.69,0.68,1.04,1.52,1.04,2.51c0,0.62-0.17,1.23-0.52,1.84C22.56,12.48,21.4,12,20.03,12h-0.31C19.45,10.89,18.89,9.91,18.04,9.06z
	"></path>
  </symbol>
  <symbol version="1.1" id="03d" xmlns="http://www.w3.org/2000/svg" xmlns:xlink="http://www.w3.org/1999/xlink" x="0px" y="0px" xml:space="preserve" viewBox="0 0 30 30">
    <path d="M4.61,16.88c0-1.15,0.36-2.17,1.08-3.07c0.72-0.9,1.63-1.48,2.74-1.73c0.31-1.37,1.02-2.49,2.11-3.37s2.35-1.32,3.76-1.32
	c1.38,0,2.61,0.43,3.69,1.28s1.78,1.95,2.1,3.29h0.33c0.9,0,1.73,0.22,2.49,0.65s1.37,1.03,1.81,1.79c0.44,0.76,0.67,1.58,0.67,2.48
	c0,0.88-0.21,1.7-0.63,2.45s-1,1.35-1.73,1.8c-0.73,0.45-1.54,0.69-2.41,0.72H9.41c-1.34-0.06-2.47-0.57-3.4-1.53
	C5.08,19.37,4.61,18.22,4.61,16.88z M6.32,16.88c0,0.87,0.3,1.62,0.9,2.26s1.33,0.98,2.19,1.03h11.19c0.86-0.04,1.59-0.39,2.19-1.03
	c0.61-0.64,0.91-1.4,0.91-2.26c0-0.88-0.33-1.63-0.98-2.27c-0.65-0.64-1.42-0.96-2.32-0.96H18.8c-0.11,0-0.17-0.06-0.17-0.18
	l-0.07-0.57c-0.11-1.08-0.58-1.99-1.4-2.72c-0.82-0.73-1.77-1.1-2.86-1.1c-1.09,0-2.05,0.37-2.85,1.1
	c-0.81,0.73-1.27,1.64-1.37,2.72l-0.08,0.57c0,0.12-0.07,0.18-0.2,0.18H9.27c-0.84,0.1-1.54,0.46-2.1,1.07S6.32,16.05,6.32,16.88z"></path>
  </symbol>
  <symbol version="1.1" id="03n" xmlns="http://www.w3.org/2000/svg" xmlns:xlink="http://www.w3.org/1999/xlink" x="0px" y="0px" xml:space="preserve" viewBox="0 0 30 30">
    <path d="M4.61,16.88c0-1.15,0.36-2.17,1.08-3.07c0.72-0.9,1.63-1.48,2.74-1.73c0.31-1.37,1.02-2.49,2.11-3.37s2.35-1.32,3.76-1.32
	c1.38,0,2.61,0.43,3.69,1.28s1.78,1.95,2.1,3.29h0.33c0.9,0,1.73,0.22,2.49,0.65s1.37,1.03,1.81,1.79c0.44,0.76,0.67,1.58,0.67,2.48
	c0,0.88-0.21,1.7-0.63,2.45s-1,1.35-1.73,1.8c-0.73,0.45-1.54,0.69-2.41,0.72H9.41c-1.34-0.06-2.47-0.57-3.4-1.53
	C5.08,19.37,4.61,18.22,4.61,16.88z M6.32,16.88c0,0.87,0.3,1.62,0.9,2.26s1.33,0.98,2.19,1.03h11.19c0.86-0.04,1.59-0.39,2.19-1.03
	c0.61-0.64,0.91-1.4,0.91-2.26c0-0.88-0.33-1.63-0.98-2.27c-0.65-0.64-1.42-0.96-2.32-0.96H18.8c-0.11,0-0.17-0.06-0.17-0.18
	l-0.07-0.57c-0.11-1.08-0.58-1.99-1.4-2.72c-0.82-0.73-1.77-1.1-2.86-1.1c-1.09,0-2.05,0.37-2.85,1.1
	c-0.81,0.73-1.27,1.64-1.37,2.72l-0.08,0.57c0,0.12-0.07,0.18-0.2,0.18H9.27c-0.84,0.1-1.54,0.46-2.1,1.07S6.32,16.05,6.32,16.88z"></path>
  </symbol>
  <symbol version="1.1" id="04n" xmlns="http://www.w3.org/2000/svg" xmlns:xlink="http://www.w3.org/1999/xlink" x="0px" y="0px" xml:space="preserve" viewBox="0 0 30 30">
    <path d="M3.89,17.6c0-0.99,0.31-1.88,0.93-2.65s1.41-1.27,2.38-1.49c0.26-1.17,0.85-2.14,1.78-2.88c0.93-0.75,2-1.12,3.22-1.12
	c1.18,0,2.24,0.36,3.16,1.09c0.93,0.73,1.53,1.66,1.8,2.8h0.27c1.18,0,2.18,0.41,3.01,1.24s1.25,1.83,1.25,3
	c0,1.18-0.42,2.18-1.25,3.01s-1.83,1.25-3.01,1.25H8.16c-0.58,0-1.13-0.11-1.65-0.34S5.52,21,5.14,20.62
	c-0.38-0.38-0.68-0.84-0.91-1.36S3.89,18.17,3.89,17.6z M5.34,17.6c0,0.76,0.28,1.42,0.82,1.96s1.21,0.82,1.99,0.82h9.28
	c0.77,0,1.44-0.27,1.99-0.82c0.55-0.55,0.83-1.2,0.83-1.96c0-0.76-0.27-1.42-0.83-1.96c-0.55-0.54-1.21-0.82-1.99-0.82h-1.39
	c-0.1,0-0.15-0.05-0.15-0.15l-0.07-0.49c-0.1-0.94-0.5-1.73-1.19-2.35s-1.51-0.93-2.45-0.93c-0.94,0-1.76,0.31-2.46,0.94
	c-0.7,0.62-1.09,1.41-1.18,2.34l-0.07,0.42c0,0.1-0.05,0.15-0.16,0.15l-0.45,0.07c-0.72,0.06-1.32,0.36-1.81,0.89
	C5.59,16.24,5.34,16.87,5.34,17.6z M14.19,8.88c-0.1,0.09-0.08,0.16,0.07,0.21c0.43,0.19,0.79,0.37,1.08,0.55
	c0.11,0.03,0.19,0.02,0.22-0.03c0.61-0.57,1.31-0.86,2.12-0.86c0.81,0,1.5,0.27,2.1,0.81c0.59,0.54,0.92,1.21,0.99,2l0.09,0.64h1.42
	c0.65,0,1.21,0.23,1.68,0.7c0.47,0.47,0.7,1.02,0.7,1.66c0,0.6-0.21,1.12-0.62,1.57s-0.92,0.7-1.53,0.77c-0.1,0-0.15,0.05-0.15,0.16
	v1.13c0,0.11,0.05,0.16,0.15,0.16c1.01-0.06,1.86-0.46,2.55-1.19s1.04-1.6,1.04-2.6c0-1.06-0.37-1.96-1.12-2.7
	c-0.75-0.75-1.65-1.12-2.7-1.12h-0.15c-0.26-1-0.81-1.82-1.65-2.47c-0.83-0.65-1.77-0.97-2.8-0.97C16.28,7.29,15.11,7.82,14.19,8.88
	z"></path>
  </symbol>
  <symbol version="1.1" id="04d" xmlns="http://www.w3.org/2000/svg" xmlns:xlink="http://www.w3.org/1999/xlink" x="0px" y="0px" xml:space="preserve" viewBox="0 0 30 30">
    <path d="M3.89,17.6c0-0.99,0.31-1.88,0.93-2.65s1.41-1.27,2.38-1.49c0.26-1.17,0.85-2.14,1.78-2.88c0.93-0.75,2-1.12,3.22-1.12
	c1.18,0,2.24,0.36,3.16,1.09c0.93,0.73,1.53,1.66,1.8,2.8h0.27c1.18,0,2.18,0.41,3.01,1.24s1.25,1.83,1.25,3
	c0,1.18-0.42,2.18-1.25,3.01s-1.83,1.25-3.01,1.25H8.16c-0.58,0-1.13-0.11-1.65-0.34S5.52,21,5.14,20.62
	c-0.38-0.38-0.68-0.84-0.91-1.36S3.89,18.17,3.89,17.6z M5.34,17.6c0,0.76,0.28,1.42,0.82,1.96s1.21,0.82,1.99,0.82h9.28
	c0.77,0,1.44-0.27,1.99-0.82c0.55-0.55,0.83-1.2,0.83-1.96c0-0.76-0.27-1.42-0.83-1.96c-0.55-0.54-1.21-0.82-1.99-0.82h-1.39
	c-0.1,0-0.15-0.05-0.15-0.15l-0.07-0.49c-0.1-0.94-0.5-1.73-1.19-2.35s-1.51-0.93-2.45-0.93c-0.94,0-1.76,0.31-2.46,0.94
	c-0.7,0.62-1.09,1.41-1.18,2.34l-0.07,0.42c0,0.1-0.05,0.15-0.16,0.15l-0.45,0.07c-0.72,0.06-1.32,0.36-1.81,0.89
	C5.59,16.24,5.34,16.87,5.34,17.6z M14.19,8.88c-0.1,0.09-0.08,0.16,0.07,0.21c0.43,0.19,0.79,0.37,1.08,0.55
	c0.11,0.03,0.19,0.02,0.22-0.03c0.61-0.57,1.31-0.86,2.12-0.86c0.81,0,1.5,0.27,2.1,0.81c0.59,0.54,0.92,1.21,0.99,2l0.09,0.64h1.42
	c0.65,0,1.21,0.23,1.68,0.7c0.47,0.47,0.7,1.02,0.7,1.66c0,0.6-0.21,1.12-0.62,1.57s-0.92,0.7-1.53,0.77c-0.1,0-0.15,0.05-0.15,0.16
	v1.13c0,0.11,0.05,0.16,0.15,0.16c1.01-0.06,1.86-0.46,2.55-1.19s1.04-1.6,1.04-2.6c0-1.06-0.37-1.96-1.12-2.7
	c-0.75-0.75-1.65-1.12-2.7-1.12h-0.15c-0.26-1-0.81-1.82-1.65-2.47c-0.83-0.65-1.77-0.97-2.8-0.97C16.28,7.29,15.11,7.82,14.19,8.88
	z"></path>
  </symbol>
  <symbol version="1.1" id="09d" xmlns="http://www.w3.org/2000/svg" xmlns:xlink="http://www.w3.org/1999/xlink" x="0px" y="0px" xml:space="preserve" viewBox="0 0 30 30">
    <path d="M4.65,16.96c0,1.32,0.47,2.46,1.4,3.41c0.93,0.96,2.06,1.46,3.38,1.5c0.12,0,0.18-0.06,0.18-0.17v-1.33
	c0-0.12-0.06-0.18-0.18-0.18c-0.84-0.04-1.57-0.38-2.17-1.02s-0.91-1.37-0.91-2.22c0-0.84,0.28-1.57,0.85-2.19
	c0.57-0.62,1.26-0.97,2.1-1.04l0.53-0.07c0.12,0,0.19-0.06,0.19-0.18l0.07-0.5c0.1-1.09,0.55-2.01,1.36-2.75s1.76-1.11,2.86-1.11
	c1.08,0,2.03,0.37,2.84,1.1c0.81,0.73,1.28,1.63,1.4,2.71l0.07,0.58c0,0.12,0.06,0.18,0.19,0.18h1.6c0.9,0,1.67,0.32,2.32,0.97
	c0.64,0.64,0.97,1.41,0.97,2.3c0,0.84-0.3,1.58-0.9,2.22c-0.6,0.63-1.33,0.97-2.18,1.02c-0.13,0-0.2,0.06-0.2,0.18v1.33
	c0,0.11,0.07,0.17,0.2,0.17c1.33-0.04,2.46-0.54,3.38-1.5s1.38-2.09,1.38-3.42c0-0.89-0.22-1.72-0.67-2.48
	c-0.44-0.76-1.05-1.36-1.81-1.8c-0.76-0.44-1.59-0.66-2.48-0.66h-0.31c-0.33-1.34-1.03-2.43-2.11-3.29
	c-1.07-0.85-2.3-1.28-3.68-1.28c-1.41,0-2.66,0.44-3.75,1.31s-1.79,1.99-2.1,3.35c-1.13,0.29-2.04,0.88-2.75,1.77
	S4.65,15.8,4.65,16.96z M10.05,23.98c0,0.17,0.05,0.34,0.16,0.51c0.11,0.17,0.27,0.28,0.47,0.35c0.23,0.07,0.44,0.06,0.64-0.04
	c0.19-0.09,0.33-0.28,0.39-0.56l0.14-0.61c0.05-0.23,0.02-0.44-0.09-0.63s-0.28-0.33-0.52-0.4c-0.22-0.07-0.44-0.04-0.64,0.08
	s-0.34,0.3-0.4,0.53l-0.14,0.59C10.06,23.83,10.05,23.89,10.05,23.98z M10.81,21.08c0,0.21,0.08,0.4,0.25,0.57
	c0.16,0.17,0.34,0.25,0.56,0.25c0.24,0,0.44-0.08,0.6-0.24c0.16-0.16,0.24-0.35,0.24-0.59c0-0.23-0.08-0.43-0.24-0.59
	c-0.16-0.16-0.36-0.24-0.6-0.24c-0.23,0-0.42,0.08-0.58,0.23C10.89,20.65,10.81,20.85,10.81,21.08z M11.42,18.81
	c-0.01,0.16,0.03,0.31,0.14,0.45c0.1,0.15,0.26,0.25,0.48,0.32c0.21,0.06,0.41,0.04,0.62-0.07S13,19.23,13.07,19l0.28-0.9
	c0.07-0.24,0.05-0.46-0.07-0.65c-0.12-0.19-0.3-0.32-0.54-0.39c-0.22-0.07-0.43-0.05-0.63,0.07c-0.2,0.11-0.34,0.28-0.41,0.5
	l-0.24,0.92c0,0.02-0.01,0.06-0.02,0.12C11.43,18.72,11.42,18.77,11.42,18.81z M12.59,27.1c0,0.18,0.05,0.34,0.15,0.5
	c0.1,0.16,0.26,0.27,0.48,0.33c0.08,0.02,0.17,0.03,0.25,0.03c0.43,0,0.69-0.2,0.79-0.61l0.14-0.59c0.06-0.26,0.03-0.48-0.08-0.68
	c-0.12-0.2-0.29-0.32-0.52-0.37c-0.21-0.07-0.42-0.05-0.63,0.07c-0.21,0.12-0.34,0.29-0.41,0.51l-0.14,0.59
	C12.6,26.97,12.59,27.04,12.59,27.1z M13.36,24.2c0,0.22,0.08,0.41,0.25,0.58c0.16,0.16,0.35,0.24,0.57,0.24
	c0.24,0,0.43-0.08,0.59-0.23c0.16-0.16,0.23-0.35,0.23-0.59c0-0.23-0.08-0.42-0.23-0.58c-0.16-0.16-0.35-0.23-0.59-0.23
	c-0.24,0-0.43,0.08-0.59,0.23S13.36,23.97,13.36,24.2z M13.99,21.93c-0.01,0.15,0.03,0.31,0.13,0.47c0.1,0.16,0.25,0.26,0.45,0.3
	c0.23,0.06,0.44,0.04,0.64-0.06s0.33-0.29,0.41-0.56l0.27-0.9c0.07-0.22,0.05-0.43-0.07-0.63c-0.12-0.2-0.29-0.33-0.53-0.4
	c-0.22-0.07-0.43-0.04-0.64,0.08c-0.21,0.12-0.34,0.3-0.41,0.53l-0.23,0.9C14,21.74,13.99,21.83,13.99,21.93z M16.75,24.08
	c0,0.16,0.05,0.32,0.15,0.48c0.1,0.16,0.26,0.27,0.46,0.33c0.03,0,0.08,0.01,0.14,0.02c0.06,0.01,0.1,0.02,0.14,0.02
	c0.41,0,0.66-0.22,0.76-0.66l0.14-0.6c0.07-0.21,0.05-0.42-0.07-0.63c-0.11-0.21-0.28-0.34-0.51-0.41
	c-0.25-0.06-0.48-0.04-0.68,0.08s-0.34,0.29-0.41,0.53l-0.09,0.59c0,0.02-0.01,0.07-0.02,0.12S16.75,24.04,16.75,24.08z
	 M17.49,21.12c0,0.22,0.08,0.42,0.25,0.57c0.15,0.16,0.34,0.24,0.57,0.24c0.24,0,0.43-0.08,0.59-0.23s0.23-0.35,0.23-0.58
	c0-0.24-0.08-0.43-0.23-0.59s-0.35-0.23-0.59-0.23c-0.24,0-0.43,0.08-0.59,0.23C17.57,20.69,17.49,20.88,17.49,21.12z M18.1,18.81
	c0,0.17,0.05,0.33,0.16,0.48c0.11,0.15,0.27,0.26,0.49,0.32c0.02,0,0.06,0.01,0.12,0.02s0.11,0.02,0.14,0.02
	c0.1,0,0.22-0.03,0.36-0.09c0.21-0.11,0.35-0.29,0.41-0.52l0.24-0.9c0.06-0.23,0.04-0.44-0.08-0.63c-0.11-0.2-0.28-0.33-0.51-0.4
	c-0.23-0.07-0.44-0.05-0.64,0.06c-0.19,0.11-0.33,0.27-0.39,0.51l-0.28,0.91c0,0.02-0.01,0.06-0.02,0.12
	C18.1,18.74,18.1,18.78,18.1,18.81z"></path>
  </symbol>
  <symbol version="1.1" id="09n" xmlns="http://www.w3.org/2000/svg" xmlns:xlink="http://www.w3.org/1999/xlink" x="0px" y="0px" xml:space="preserve" viewBox="0 0 30 30">
    <path d="M4.65,16.96c0,1.32,0.47,2.46,1.4,3.41c0.93,0.96,2.06,1.46,3.38,1.5c0.12,0,0.18-0.06,0.18-0.17v-1.33
	c0-0.12-0.06-0.18-0.18-0.18c-0.84-0.04-1.57-0.38-2.17-1.02s-0.91-1.37-0.91-2.22c0-0.84,0.28-1.57,0.85-2.19
	c0.57-0.62,1.26-0.97,2.1-1.04l0.53-0.07c0.12,0,0.19-0.06,0.19-0.18l0.07-0.5c0.1-1.09,0.55-2.01,1.36-2.75s1.76-1.11,2.86-1.11
	c1.08,0,2.03,0.37,2.84,1.1c0.81,0.73,1.28,1.63,1.4,2.71l0.07,0.58c0,0.12,0.06,0.18,0.19,0.18h1.6c0.9,0,1.67,0.32,2.32,0.97
	c0.64,0.64,0.97,1.41,0.97,2.3c0,0.84-0.3,1.58-0.9,2.22c-0.6,0.63-1.33,0.97-2.18,1.02c-0.13,0-0.2,0.06-0.2,0.18v1.33
	c0,0.11,0.07,0.17,0.2,0.17c1.33-0.04,2.46-0.54,3.38-1.5s1.38-2.09,1.38-3.42c0-0.89-0.22-1.72-0.67-2.48
	c-0.44-0.76-1.05-1.36-1.81-1.8c-0.76-0.44-1.59-0.66-2.48-0.66h-0.31c-0.33-1.34-1.03-2.43-2.11-3.29
	c-1.07-0.85-2.3-1.28-3.68-1.28c-1.41,0-2.66,0.44-3.75,1.31s-1.79,1.99-2.1,3.35c-1.13,0.29-2.04,0.88-2.75,1.77
	S4.65,15.8,4.65,16.96z M10.05,23.98c0,0.17,0.05,0.34,0.16,0.51c0.11,0.17,0.27,0.28,0.47,0.35c0.23,0.07,0.44,0.06,0.64-0.04
	c0.19-0.09,0.33-0.28,0.39-0.56l0.14-0.61c0.05-0.23,0.02-0.44-0.09-0.63s-0.28-0.33-0.52-0.4c-0.22-0.07-0.44-0.04-0.64,0.08
	s-0.34,0.3-0.4,0.53l-0.14,0.59C10.06,23.83,10.05,23.89,10.05,23.98z M10.81,21.08c0,0.21,0.08,0.4,0.25,0.57
	c0.16,0.17,0.34,0.25,0.56,0.25c0.24,0,0.44-0.08,0.6-0.24c0.16-0.16,0.24-0.35,0.24-0.59c0-0.23-0.08-0.43-0.24-0.59
	c-0.16-0.16-0.36-0.24-0.6-0.24c-0.23,0-0.42,0.08-0.58,0.23C10.89,20.65,10.81,20.85,10.81,21.08z M11.42,18.81
	c-0.01,0.16,0.03,0.31,0.14,0.45c0.1,0.15,0.26,0.25,0.48,0.32c0.21,0.06,0.41,0.04,0.62-0.07S13,19.23,13.07,19l0.28-0.9
	c0.07-0.24,0.05-0.46-0.07-0.65c-0.12-0.19-0.3-0.32-0.54-0.39c-0.22-0.07-0.43-0.05-0.63,0.07c-0.2,0.11-0.34,0.28-0.41,0.5
	l-0.24,0.92c0,0.02-0.01,0.06-0.02,0.12C11.43,18.72,11.42,18.77,11.42,18.81z M12.59,27.1c0,0.18,0.05,0.34,0.15,0.5
	c0.1,0.16,0.26,0.27,0.48,0.33c0.08,0.02,0.17,0.03,0.25,0.03c0.43,0,0.69-0.2,0.79-0.61l0.14-0.59c0.06-0.26,0.03-0.48-0.08-0.68
	c-0.12-0.2-0.29-0.32-0.52-0.37c-0.21-0.07-0.42-0.05-0.63,0.07c-0.21,0.12-0.34,0.29-0.41,0.51l-0.14,0.59
	C12.6,26.97,12.59,27.04,12.59,27.1z M13.36,24.2c0,0.22,0.08,0.41,0.25,0.58c0.16,0.16,0.35,0.24,0.57,0.24
	c0.24,0,0.43-0.08,0.59-0.23c0.16-0.16,0.23-0.35,0.23-0.59c0-0.23-0.08-0.42-0.23-0.58c-0.16-0.16-0.35-0.23-0.59-0.23
	c-0.24,0-0.43,0.08-0.59,0.23S13.36,23.97,13.36,24.2z M13.99,21.93c-0.01,0.15,0.03,0.31,0.13,0.47c0.1,0.16,0.25,0.26,0.45,0.3
	c0.23,0.06,0.44,0.04,0.64-0.06s0.33-0.29,0.41-0.56l0.27-0.9c0.07-0.22,0.05-0.43-0.07-0.63c-0.12-0.2-0.29-0.33-0.53-0.4
	c-0.22-0.07-0.43-0.04-0.64,0.08c-0.21,0.12-0.34,0.3-0.41,0.53l-0.23,0.9C14,21.74,13.99,21.83,13.99,21.93z M16.75,24.08
	c0,0.16,0.05,0.32,0.15,0.48c0.1,0.16,0.26,0.27,0.46,0.33c0.03,0,0.08,0.01,0.14,0.02c0.06,0.01,0.1,0.02,0.14,0.02
	c0.41,0,0.66-0.22,0.76-0.66l0.14-0.6c0.07-0.21,0.05-0.42-0.07-0.63c-0.11-0.21-0.28-0.34-0.51-0.41
	c-0.25-0.06-0.48-0.04-0.68,0.08s-0.34,0.29-0.41,0.53l-0.09,0.59c0,0.02-0.01,0.07-0.02,0.12S16.75,24.04,16.75,24.08z
	 M17.49,21.12c0,0.22,0.08,0.42,0.25,0.57c0.15,0.16,0.34,0.24,0.57,0.24c0.24,0,0.43-0.08,0.59-0.23s0.23-0.35,0.23-0.58
	c0-0.24-0.08-0.43-0.23-0.59s-0.35-0.23-0.59-0.23c-0.24,0-0.43,0.08-0.59,0.23C17.57,20.69,17.49,20.88,17.49,21.12z M18.1,18.81
	c0,0.17,0.05,0.33,0.16,0.48c0.11,0.15,0.27,0.26,0.49,0.32c0.02,0,0.06,0.01,0.12,0.02s0.11,0.02,0.14,0.02
	c0.1,0,0.22-0.03,0.36-0.09c0.21-0.11,0.35-0.29,0.41-0.52l0.24-0.9c0.06-0.23,0.04-0.44-0.08-0.63c-0.11-0.2-0.28-0.33-0.51-0.4
	c-0.23-0.07-0.44-0.05-0.64,0.06c-0.19,0.11-0.33,0.27-0.39,0.51l-0.28,0.91c0,0.02-0.01,0.06-0.02,0.12
	C18.1,18.74,18.1,18.78,18.1,18.81z"></path>
  </symbol>
  <symbol version="1.1" id="10d" xmlns="http://www.w3.org/2000/svg" xmlns:xlink="http://www.w3.org/1999/xlink" x="0px" y="0px" xml:space="preserve" viewBox="0 0 30 30">
    <path d="M1.51,16.89c0,1.33,0.46,2.48,1.39,3.44s2.06,1.47,3.41,1.53c0.11,0,0.17-0.06,0.17-0.17v-1.34c0-0.11-0.06-0.17-0.17-0.17
	c-0.86-0.04-1.59-0.39-2.19-1.03s-0.9-1.4-0.9-2.26c0-0.82,0.28-1.54,0.85-2.16s1.27-0.97,2.1-1.07l0.53-0.05
	c0.13,0,0.2-0.06,0.2-0.17l0.07-0.54c0.11-1.08,0.56-1.99,1.37-2.72s1.76-1.1,2.85-1.1c1.09,0,2.04,0.37,2.86,1.1
	s1.28,1.64,1.4,2.72l0.07,0.57c0,0.12,0.06,0.19,0.17,0.19h1.62c0.89,0,1.65,0.32,2.3,0.96c0.65,0.64,0.97,1.39,0.97,2.27
	c0,0.87-0.3,1.62-0.9,2.26c-0.6,0.64-1.33,0.98-2.18,1.03c-0.12,0-0.19,0.06-0.19,0.17v1.34c0,0.11,0.06,0.17,0.19,0.17
	c1.33-0.04,2.46-0.55,3.39-1.51c0.93-0.97,1.39-2.12,1.39-3.45c0-0.72-0.14-1.39-0.42-2.01c0.78-0.97,1.17-2.07,1.17-3.31
	c0-0.95-0.24-1.83-0.71-2.64c-0.47-0.81-1.11-1.45-1.92-1.92s-1.68-0.7-2.62-0.7c-1.56,0-2.85,0.58-3.88,1.74
	c-0.82-0.44-1.72-0.66-2.71-0.66c-1.41,0-2.67,0.44-3.76,1.32s-1.79,2-2.1,3.36c-1.11,0.26-2.02,0.84-2.74,1.74
	S1.51,15.74,1.51,16.89z M6.91,23.75c0,0.17,0.05,0.33,0.16,0.49c0.11,0.16,0.27,0.27,0.49,0.33c0.11,0.02,0.2,0.04,0.27,0.04
	c0.39,0,0.65-0.21,0.77-0.64l1.58-5.88c0.07-0.24,0.04-0.46-0.08-0.67c-0.12-0.21-0.3-0.33-0.53-0.38
	c-0.22-0.07-0.43-0.05-0.63,0.07c-0.2,0.11-0.34,0.28-0.41,0.51l-1.58,5.91C6.93,23.66,6.91,23.73,6.91,23.75z M9.52,26.83
	c0,0.19,0.05,0.36,0.15,0.52c0.1,0.16,0.27,0.26,0.52,0.3c0.11,0.02,0.2,0.04,0.26,0.04c0.16,0,0.31-0.06,0.45-0.17
	c0.14-0.12,0.23-0.28,0.27-0.48l2.4-8.93c0.06-0.23,0.04-0.45-0.07-0.64s-0.28-0.33-0.5-0.4c-0.23-0.07-0.45-0.05-0.65,0.07
	c-0.2,0.11-0.34,0.28-0.4,0.51l-2.4,8.93C9.53,26.73,9.52,26.82,9.52,26.83z M9.94,4.6c0,0.24,0.08,0.44,0.25,0.61l0.65,0.66
	c0.19,0.15,0.4,0.22,0.62,0.22c0.21,0,0.41-0.08,0.58-0.23c0.17-0.16,0.26-0.35,0.26-0.59c0-0.24-0.08-0.46-0.24-0.64l-0.64-0.65
	c-0.18-0.17-0.38-0.25-0.6-0.25c-0.24,0-0.45,0.09-0.62,0.26C10.03,4.16,9.94,4.37,9.94,4.6z M13.67,23.77
	c0,0.16,0.05,0.32,0.15,0.47s0.26,0.26,0.46,0.32c0.11,0.02,0.2,0.04,0.25,0.04c0.17,0,0.34-0.05,0.49-0.15
	c0.15-0.1,0.25-0.26,0.3-0.49l1.58-5.88c0.06-0.23,0.04-0.45-0.07-0.64c-0.11-0.2-0.28-0.33-0.5-0.4c-0.24-0.07-0.45-0.05-0.65,0.07
	c-0.2,0.11-0.33,0.28-0.39,0.51l-1.58,5.91C13.69,23.68,13.67,23.76,13.67,23.77z M15.3,9.03c0.71-0.67,1.53-1,2.48-1
	c0.98,0,1.82,0.35,2.5,1.04c0.69,0.69,1.03,1.53,1.03,2.52c0,0.62-0.17,1.24-0.52,1.85c-0.97-0.97-2.13-1.45-3.49-1.45h-0.33
	C16.7,10.81,16.14,9.83,15.3,9.03z M16.92,3.78c0,0.23,0.08,0.43,0.25,0.59c0.17,0.16,0.37,0.24,0.61,0.24
	c0.23,0,0.43-0.08,0.59-0.23c0.16-0.16,0.24-0.35,0.24-0.59V1.73c0-0.26-0.08-0.47-0.23-0.63c-0.16-0.16-0.35-0.24-0.59-0.24
	c-0.25,0-0.46,0.08-0.62,0.25s-0.24,0.37-0.24,0.62V3.78z M22.45,6.06c0,0.24,0.09,0.44,0.27,0.59c0.14,0.16,0.32,0.24,0.55,0.26
	c0.23,0.02,0.44-0.07,0.62-0.26l1.44-1.43c0.18-0.17,0.26-0.38,0.26-0.63c0-0.24-0.08-0.45-0.25-0.61
	c-0.17-0.16-0.37-0.24-0.61-0.24c-0.21,0-0.4,0.08-0.58,0.25l-1.43,1.44C22.54,5.6,22.45,5.81,22.45,6.06z M23.26,17.91
	c0,0.24,0.08,0.45,0.24,0.63l0.65,0.63c0.18,0.14,0.38,0.21,0.6,0.21l0.02,0.02c0.23,0,0.42-0.08,0.58-0.24
	c0.16-0.16,0.24-0.37,0.24-0.61c0-0.24-0.09-0.43-0.26-0.58l-0.62-0.66c-0.18-0.16-0.39-0.24-0.62-0.24s-0.43,0.08-0.59,0.25
	S23.26,17.67,23.26,17.91z M24.72,11.58c0,0.24,0.09,0.43,0.26,0.59c0.18,0.18,0.38,0.26,0.62,0.26h2.03c0.24,0,0.44-0.08,0.61-0.25
	c0.17-0.17,0.25-0.37,0.25-0.6c0-0.24-0.08-0.44-0.25-0.61s-0.37-0.26-0.61-0.26H25.6c-0.24,0-0.44,0.09-0.62,0.26
	C24.8,11.14,24.72,11.34,24.72,11.58z"></path>
  </symbol>
  <symbol version="1.1" id="10n" xmlns="http://www.w3.org/2000/svg" xmlns:xlink="http://www.w3.org/1999/xlink" x="0px" y="0px" xml:space="preserve" viewBox="0 0 30 30">
    <path d="M4.26,16.93c0,0.66,0.12,1.28,0.38,1.88s0.59,1.11,1.02,1.55c0.43,0.43,0.94,0.79,1.53,1.05s1.21,0.42,1.87,0.45
	c0.11,0,0.17-0.06,0.17-0.17v-1.34c0-0.11-0.06-0.17-0.17-0.17c-0.87-0.06-1.6-0.41-2.19-1.03c-0.59-0.62-0.89-1.37-0.89-2.22
	c0-0.84,0.28-1.57,0.85-2.19c0.57-0.62,1.26-0.97,2.1-1.04l0.53-0.06c0.13,0,0.2-0.06,0.2-0.19l0.06-0.51
	c0.11-1.09,0.56-1.99,1.37-2.71s1.76-1.08,2.86-1.08c1.09,0,2.05,0.36,2.85,1.07c0.81,0.72,1.27,1.61,1.38,2.69l0.07,0.58
	c0,0.12,0.06,0.18,0.19,0.18h1.6c0.9,0,1.67,0.32,2.32,0.96s0.97,1.4,0.97,2.29c0,0.86-0.3,1.6-0.89,2.22
	c-0.59,0.62-1.33,0.97-2.19,1.03c-0.13,0-0.2,0.06-0.2,0.17v1.34c0,0.11,0.07,0.17,0.2,0.17c1.34-0.06,2.47-0.57,3.39-1.51
	c0.92-0.95,1.38-2.09,1.38-3.42c0-0.72-0.14-1.38-0.42-1.99c0.78-0.94,1.17-2.06,1.17-3.36c0-0.94-0.23-1.81-0.7-2.62
	c-0.47-0.81-1.11-1.45-1.91-1.92s-1.68-0.71-2.62-0.71c-1.56,0-2.85,0.58-3.88,1.73c-0.88-0.43-1.78-0.65-2.7-0.65
	c-1.41,0-2.66,0.44-3.75,1.32s-1.79,2-2.1,3.38c-1.1,0.26-2.01,0.83-2.73,1.73C4.62,14.76,4.26,15.78,4.26,16.93z M9.75,23.61
	c0,0.4,0.22,0.66,0.65,0.78c0.21,0.07,0.42,0.05,0.63-0.06c0.21-0.11,0.35-0.28,0.41-0.5l1.5-5.73c0.06-0.22,0.03-0.43-0.09-0.63
	c-0.12-0.2-0.3-0.33-0.54-0.4c-0.22-0.07-0.43-0.05-0.63,0.07s-0.33,0.29-0.39,0.52l-1.5,5.7C9.76,23.47,9.75,23.55,9.75,23.61z
	 M12.34,26.66c0,0.12,0.03,0.24,0.08,0.37c0.1,0.21,0.27,0.35,0.51,0.43c0.02,0,0.06,0,0.1,0.01s0.08,0.01,0.11,0.01s0.06,0,0.09,0
	c0.43,0,0.68-0.22,0.76-0.66l2.3-8.74c0.07-0.22,0.05-0.43-0.06-0.63c-0.11-0.2-0.28-0.33-0.5-0.4c-0.24-0.07-0.47-0.05-0.68,0.07
	s-0.33,0.29-0.38,0.52l-2.31,8.75C12.35,26.49,12.34,26.58,12.34,26.66z M16.5,23.6c0,0.16,0.05,0.31,0.16,0.47
	c0.11,0.16,0.26,0.26,0.45,0.32c0.06,0.02,0.14,0.03,0.23,0.03c0.17,0,0.33-0.05,0.49-0.14c0.16-0.09,0.26-0.24,0.32-0.45l1.5-5.73
	c0.08-0.21,0.05-0.41-0.07-0.62c-0.12-0.21-0.29-0.34-0.52-0.41c-0.24-0.07-0.46-0.05-0.66,0.07c-0.2,0.12-0.32,0.29-0.36,0.52
	l-1.5,5.7C16.51,23.47,16.5,23.55,16.5,23.6z M18.03,9.08c0.67-0.67,1.49-1,2.48-1c0.98,0,1.81,0.34,2.49,1.02
	c0.69,0.68,1.03,1.51,1.03,2.48c0,0.63-0.17,1.24-0.52,1.85C22.56,12.48,21.4,12,20.02,12h-0.31C19.43,10.83,18.87,9.86,18.03,9.08z
	"></path>
  </symbol>
  <symbol version="1.1" id="11d" xmlns="http://www.w3.org/2000/svg" xmlns:xlink="http://www.w3.org/1999/xlink" x="0px" y="0px" xml:space="preserve" viewBox="0 0 30 30">
    <path d="M1.52,16.9c0,1.11,0.33,2.09,0.98,2.96s1.51,1.46,2.57,1.78l-0.64,1.7c-0.04,0.14,0,0.21,0.14,0.21H6.7L5.45,27.5h0.29
	l4.17-5.39c0.04-0.04,0.04-0.09,0.01-0.14C9.9,21.92,9.85,21.9,9.78,21.9H7.61l2.47-4.63c0.07-0.14,0.02-0.22-0.14-0.22H7
	c-0.09,0-0.17,0.05-0.23,0.14L5.7,20.07c-0.71-0.18-1.3-0.57-1.77-1.16c-0.47-0.59-0.7-1.26-0.7-2.01c0-0.83,0.28-1.55,0.85-2.17
	s1.27-0.97,2.1-1.07L6.7,13.6c0.13,0,0.2-0.06,0.2-0.18l0.06-0.51c0.11-1.08,0.57-1.99,1.38-2.72c0.81-0.73,1.77-1.1,2.86-1.1
	c1.09,0,2.04,0.37,2.85,1.1s1.28,1.64,1.4,2.72l0.06,0.58c0,0.11,0.06,0.17,0.18,0.17h1.61c0.91,0,1.68,0.32,2.32,0.95
	c0.64,0.63,0.96,1.39,0.96,2.29c0,0.85-0.3,1.59-0.89,2.21c-0.59,0.62-1.32,0.97-2.19,1.04c-0.13,0-0.2,0.06-0.2,0.18v1.37
	c0,0.11,0.07,0.17,0.2,0.17c1.33-0.04,2.46-0.55,3.39-1.51c0.93-0.96,1.39-2.11,1.39-3.45c0-0.74-0.14-1.41-0.43-2.01
	c0.79-0.96,1.18-2.06,1.18-3.32c0-0.94-0.24-1.81-0.71-2.62c-0.47-0.81-1.11-1.45-1.92-1.92c-0.81-0.47-1.68-0.71-2.62-0.71
	c-1.54,0-2.84,0.58-3.88,1.73c-0.81-0.43-1.71-0.65-2.7-0.65c-1.41,0-2.67,0.44-3.76,1.31s-1.79,1.99-2.1,3.36
	c-1.11,0.26-2.02,0.83-2.73,1.73S1.52,15.75,1.52,16.9z M9.61,26.48c-0.01,0.15,0.03,0.3,0.14,0.44s0.26,0.25,0.46,0.33
	c0.07,0.02,0.14,0.03,0.21,0.03c0.17,0,0.34-0.05,0.51-0.15s0.28-0.26,0.34-0.47l2.29-8.57c0.06-0.23,0.04-0.45-0.07-0.64
	c-0.11-0.2-0.27-0.33-0.49-0.4c-0.23-0.07-0.45-0.05-0.65,0.07c-0.2,0.11-0.34,0.28-0.4,0.51l-2.31,8.6
	C9.62,26.3,9.61,26.39,9.61,26.48z M9.94,4.63c0,0.24,0.08,0.43,0.25,0.59l0.64,0.66C11,6.05,11.2,6.13,11.44,6.14
	c0.24,0,0.43-0.08,0.57-0.26c0.19-0.15,0.28-0.35,0.28-0.6c0-0.24-0.08-0.43-0.25-0.59l-0.63-0.66c-0.17-0.16-0.38-0.24-0.61-0.24
	c-0.25,0-0.46,0.08-0.62,0.24C10.02,4.19,9.94,4.39,9.94,4.63z M13.77,23.43c0,0.12,0.04,0.24,0.11,0.38
	c0.13,0.2,0.29,0.34,0.5,0.43c0.07,0.03,0.17,0.05,0.3,0.05c0.15,0,0.26-0.02,0.33-0.06c0.2-0.08,0.34-0.28,0.41-0.58l1.49-5.55
	c0.06-0.24,0.04-0.45-0.07-0.65c-0.11-0.19-0.28-0.32-0.51-0.39c-0.23-0.07-0.45-0.05-0.64,0.07c-0.2,0.11-0.33,0.28-0.39,0.51
	L13.8,23.2c0,0.02-0.01,0.06-0.02,0.11C13.77,23.37,13.77,23.4,13.77,23.43z M15.3,9.04c0.67-0.64,1.49-0.97,2.48-0.97
	c0.97,0,1.81,0.34,2.5,1.02c0.69,0.68,1.04,1.51,1.04,2.48c0,0.62-0.17,1.24-0.52,1.85c-0.99-0.98-2.16-1.47-3.5-1.47h-0.31
	C16.68,10.78,16.11,9.81,15.3,9.04z M16.91,3.79c0,0.23,0.09,0.43,0.26,0.6s0.37,0.26,0.6,0.26c0.24,0,0.43-0.08,0.59-0.25
	c0.16-0.17,0.23-0.37,0.23-0.61V1.73c0-0.24-0.08-0.44-0.23-0.61s-0.35-0.25-0.59-0.25c-0.23,0-0.43,0.08-0.6,0.25
	s-0.26,0.37-0.26,0.61V3.79z M22.44,6.07c0,0.24,0.09,0.44,0.26,0.6c0.14,0.17,0.33,0.25,0.57,0.25s0.44-0.08,0.6-0.25l1.44-1.45
	c0.17-0.16,0.26-0.35,0.26-0.59c0-0.24-0.08-0.44-0.25-0.61c-0.17-0.17-0.37-0.25-0.61-0.25c-0.22,0-0.41,0.09-0.57,0.26L22.7,5.47
	C22.53,5.63,22.44,5.83,22.44,6.07z M23.25,17.93c0,0.22,0.08,0.42,0.24,0.6l0.66,0.63c0.12,0.14,0.31,0.23,0.54,0.24l0.01,0.01
	c0.01,0,0.03,0,0.05,0c0.02,0,0.03,0,0.05,0c0.19,0,0.36-0.09,0.53-0.26c0.17-0.16,0.26-0.36,0.26-0.6c0-0.23-0.09-0.43-0.26-0.61
	l-0.65-0.61c-0.16-0.18-0.36-0.27-0.58-0.27c-0.23,0-0.43,0.08-0.6,0.25C23.33,17.49,23.25,17.7,23.25,17.93z M24.7,11.58
	c0,0.23,0.09,0.43,0.27,0.6c0.18,0.18,0.38,0.27,0.61,0.27h2.03c0.23,0,0.43-0.09,0.6-0.26s0.26-0.38,0.26-0.61
	c0-0.23-0.08-0.43-0.25-0.59c-0.17-0.16-0.37-0.24-0.61-0.24h-2.03c-0.25,0-0.46,0.08-0.63,0.24C24.78,11.15,24.7,11.35,24.7,11.58z
	"></path>
  </symbol>
  <symbol version="1.1" id="11n" xmlns="http://www.w3.org/2000/svg" xmlns:xlink="http://www.w3.org/1999/xlink" x="0px" y="0px" xml:space="preserve" viewBox="0 0 30 30">
    <path d="M4.28,16.89c0,1.11,0.33,2.11,0.99,2.98s1.52,1.46,2.56,1.75l-0.64,1.68c-0.05,0.14,0,0.22,0.14,0.22h2.12l-1.04,4.19h0.28
	l3.97-5.62c0.04-0.04,0.04-0.09,0.01-0.14c-0.03-0.05-0.08-0.07-0.15-0.07h-2.17l2.47-4.61c0.07-0.14,0.02-0.22-0.14-0.22H9.74
	c-0.09,0-0.16,0.05-0.23,0.14l-1.07,2.87c-0.71-0.17-1.3-0.56-1.77-1.14s-0.7-1.26-0.7-2.02c0-0.83,0.28-1.55,0.84-2.16
	s1.26-0.96,2.1-1.06l0.53-0.04c0.12,0,0.18-0.06,0.18-0.18l0.07-0.53c0.07-0.71,0.3-1.35,0.69-1.94c0.39-0.58,0.9-1.04,1.52-1.37
	s1.29-0.5,2.01-0.5c1.08,0,2.03,0.37,2.84,1.1c0.81,0.73,1.27,1.63,1.39,2.71l0.08,0.56c0,0.12,0.06,0.19,0.17,0.19h1.62
	c0.89,0,1.65,0.32,2.3,0.96s0.97,1.39,0.97,2.27c0,0.86-0.3,1.61-0.9,2.25s-1.33,0.97-2.18,1.02c-0.13,0-0.2,0.06-0.2,0.18v1.34
	c0,0.11,0.07,0.17,0.2,0.17c0.87-0.02,1.67-0.26,2.4-0.72c0.73-0.45,1.31-1.05,1.72-1.8s0.63-1.56,0.63-2.43
	c0-0.73-0.14-1.4-0.42-2.01c0.78-0.93,1.17-2.03,1.17-3.31c0-0.71-0.14-1.38-0.42-2.02c-0.28-0.64-0.65-1.2-1.12-1.67
	c-0.47-0.47-1.02-0.84-1.67-1.12c-0.64-0.28-1.32-0.42-2.02-0.42c-1.54,0-2.83,0.58-3.86,1.73c-0.81-0.43-1.71-0.65-2.7-0.65
	c-1.41,0-2.66,0.44-3.75,1.31s-1.79,1.99-2.1,3.35c-1.1,0.26-2.01,0.83-2.73,1.73S4.28,15.74,4.28,16.89z M12.21,26.77
	c0,0.16,0.05,0.32,0.15,0.46s0.25,0.25,0.45,0.31l0.25,0.03c0.42,0,0.68-0.2,0.8-0.6l2.43-8.89c0.06-0.23,0.04-0.45-0.07-0.64
	c-0.11-0.2-0.27-0.33-0.49-0.4c-0.23-0.07-0.45-0.05-0.65,0.06c-0.2,0.11-0.34,0.28-0.4,0.5l-2.45,8.9
	C12.22,26.67,12.21,26.76,12.21,26.77z M16.35,23.74c0,0.4,0.21,0.67,0.62,0.8c0.17,0.02,0.26,0.03,0.26,0.03
	c0.11,0,0.23-0.02,0.35-0.08c0.2-0.09,0.34-0.27,0.42-0.55l1.64-5.85c0.06-0.23,0.04-0.45-0.08-0.64c-0.11-0.2-0.28-0.33-0.51-0.4
	c-0.23-0.07-0.45-0.05-0.65,0.06c-0.2,0.11-0.33,0.28-0.39,0.5l-1.62,5.89C16.37,23.64,16.35,23.72,16.35,23.74z M18.02,9.04
	c0.68-0.64,1.5-0.96,2.48-0.96c0.97,0,1.8,0.34,2.48,1.02c0.69,0.68,1.03,1.51,1.03,2.48c0,0.63-0.17,1.25-0.51,1.85
	c-0.96-0.96-2.12-1.44-3.48-1.44h-0.32C19.42,10.84,18.86,9.86,18.02,9.04z"></path>
  </symbol>
  <symbol version="1.1" id="13d" xmlns="http://www.w3.org/2000/svg" xmlns:xlink="http://www.w3.org/1999/xlink" x="0px" y="0px" xml:space="preserve" viewBox="0 0 30 30">
    <path d="M1.58,16.93c0,0.86,0.21,1.67,0.64,2.41c0.42,0.74,1,1.34,1.74,1.79c0.73,0.45,1.54,0.69,2.4,0.71
	c0.11,0,0.17-0.06,0.17-0.17v-1.33c0-0.12-0.06-0.19-0.17-0.19c-0.85-0.04-1.58-0.38-2.18-1.02s-0.9-1.37-0.9-2.21
	c0-0.82,0.28-1.54,0.85-2.16c0.57-0.61,1.26-0.97,2.1-1.07l0.53-0.06c0.12,0,0.18-0.06,0.18-0.19l0.08-0.51
	c0.11-1.09,0.56-2,1.36-2.73c0.8-0.73,1.75-1.09,2.85-1.09c1.09,0,2.04,0.36,2.85,1.09c0.82,0.73,1.28,1.63,1.38,2.7l0.07,0.58
	c0,0.11,0.06,0.17,0.17,0.17h1.61c0.9,0,1.67,0.32,2.31,0.96c0.64,0.64,0.96,1.4,0.96,2.29c0,0.84-0.3,1.57-0.9,2.21
	c-0.6,0.63-1.33,0.97-2.17,1.02c-0.12,0-0.19,0.06-0.19,0.19v1.33c0,0.11,0.06,0.17,0.19,0.17c1.33-0.04,2.45-0.54,3.38-1.5
	c0.93-0.96,1.39-2.09,1.39-3.41c0-0.76-0.14-1.43-0.43-2.03C22.6,13.95,23,12.85,23,11.6c0-0.94-0.23-1.81-0.7-2.61
	c-0.47-0.8-1.11-1.44-1.91-1.91s-1.68-0.7-2.62-0.7c-1.54,0-2.83,0.58-3.87,1.73c-0.81-0.44-1.71-0.66-2.69-0.66
	c-1.41,0-2.65,0.44-3.74,1.31s-1.78,1.99-2.09,3.34c-1.12,0.28-2.03,0.86-2.74,1.75C1.93,14.75,1.58,15.77,1.58,16.93z M7.92,20.98
	c0,0.24,0.08,0.44,0.24,0.61c0.16,0.17,0.35,0.25,0.59,0.25c0.23,0,0.43-0.08,0.59-0.25c0.16-0.17,0.24-0.37,0.24-0.61
	c0-0.23-0.08-0.42-0.24-0.58s-0.35-0.24-0.59-0.24c-0.23,0-0.43,0.08-0.59,0.24S7.92,20.76,7.92,20.98z M7.92,24.61
	c0,0.21,0.08,0.4,0.24,0.57c0.18,0.16,0.37,0.24,0.58,0.24c0.24,0,0.43-0.08,0.59-0.23c0.16-0.16,0.23-0.35,0.23-0.58
	c0-0.24-0.08-0.43-0.24-0.59c-0.16-0.16-0.35-0.23-0.59-0.23c-0.23,0-0.43,0.08-0.59,0.23C8,24.17,7.92,24.37,7.92,24.61z
	 M9.97,4.68c0,0.24,0.08,0.44,0.24,0.59l0.66,0.66c0.16,0.16,0.34,0.25,0.53,0.25c0.21,0.03,0.41-0.04,0.61-0.22
	c0.2-0.18,0.3-0.39,0.3-0.63c0-0.24-0.08-0.46-0.24-0.64l-0.64-0.61c-0.15-0.17-0.34-0.25-0.58-0.25c-0.25,0-0.46,0.08-0.63,0.25
	C10.05,4.24,9.97,4.44,9.97,4.68z M11.1,22.9c0,0.22,0.08,0.42,0.24,0.6c0.16,0.16,0.36,0.24,0.58,0.24c0.24,0,0.44-0.08,0.6-0.24
	s0.25-0.36,0.25-0.6c0-0.23-0.08-0.43-0.25-0.6s-0.37-0.25-0.6-0.25c-0.23,0-0.42,0.08-0.58,0.25S11.1,22.67,11.1,22.9z M11.1,19.3
	c0,0.23,0.08,0.42,0.24,0.58s0.36,0.24,0.58,0.24c0.24,0,0.44-0.08,0.6-0.24c0.17-0.16,0.25-0.35,0.25-0.59
	c0-0.23-0.08-0.43-0.25-0.59s-0.37-0.24-0.6-0.24c-0.23,0-0.42,0.08-0.58,0.24S11.1,19.07,11.1,19.3z M11.1,26.56
	c0,0.22,0.08,0.41,0.24,0.57c0.17,0.17,0.36,0.25,0.58,0.25c0.24,0,0.44-0.08,0.6-0.23c0.17-0.16,0.25-0.35,0.25-0.59
	s-0.08-0.44-0.25-0.6c-0.17-0.17-0.37-0.25-0.6-0.25c-0.22,0-0.41,0.08-0.58,0.25C11.18,26.13,11.1,26.33,11.1,26.56z M14.32,20.98
	c0,0.24,0.08,0.44,0.24,0.61c0.16,0.17,0.36,0.25,0.59,0.25s0.43-0.08,0.59-0.25c0.16-0.17,0.24-0.37,0.24-0.61
	c0-0.23-0.08-0.42-0.24-0.58s-0.35-0.24-0.59-0.24s-0.43,0.08-0.59,0.24S14.32,20.76,14.32,20.98z M14.32,24.61
	c0,0.21,0.08,0.4,0.23,0.57c0.18,0.16,0.38,0.24,0.6,0.24c0.24,0,0.43-0.08,0.59-0.23c0.16-0.16,0.23-0.35,0.23-0.58
	c0-0.24-0.08-0.43-0.24-0.59c-0.16-0.16-0.35-0.23-0.59-0.23c-0.24,0-0.44,0.08-0.6,0.24C14.4,24.18,14.32,24.38,14.32,24.61z
	 M15.3,9.06c0.69-0.66,1.51-0.99,2.47-0.99c0.97,0,1.8,0.35,2.48,1.04c0.69,0.69,1.03,1.53,1.03,2.49c0,0.62-0.17,1.24-0.51,1.84
	C19.82,12.48,18.66,12,17.3,12h-0.32C16.68,10.83,16.12,9.85,15.3,9.06z M16.9,3.84c0,0.23,0.08,0.43,0.25,0.58s0.37,0.23,0.61,0.23
	s0.43-0.08,0.59-0.23c0.16-0.16,0.23-0.35,0.23-0.58V1.8c0-0.24-0.08-0.44-0.24-0.61S18,0.94,17.77,0.94s-0.43,0.09-0.6,0.26
	c-0.17,0.17-0.26,0.37-0.26,0.6V3.84z M22.42,6.11c0,0.23,0.08,0.43,0.25,0.59c0.15,0.16,0.34,0.24,0.56,0.26s0.43-0.07,0.62-0.26
	l1.43-1.43c0.18-0.18,0.26-0.38,0.26-0.61c0-0.24-0.09-0.44-0.26-0.61c-0.17-0.17-0.37-0.25-0.6-0.25c-0.22,0-0.41,0.08-0.58,0.25
	l-1.43,1.46C22.5,5.67,22.42,5.87,22.42,6.11z M23.22,17.91c0,0.25,0.08,0.46,0.24,0.62l0.64,0.63c0.24,0.16,0.46,0.24,0.64,0.24
	c0.21,0,0.39-0.09,0.56-0.26c0.17-0.17,0.25-0.38,0.25-0.61c0-0.23-0.09-0.42-0.26-0.58l-0.62-0.65c-0.18-0.16-0.38-0.24-0.61-0.24
	s-0.43,0.08-0.59,0.25C23.3,17.47,23.22,17.67,23.22,17.91z M24.67,11.6c0,0.24,0.09,0.43,0.26,0.59c0.17,0.18,0.38,0.27,0.62,0.27
	h2.02c0.23,0,0.43-0.08,0.6-0.25s0.25-0.37,0.25-0.61c0-0.24-0.08-0.44-0.25-0.6s-0.37-0.25-0.6-0.25h-2.02
	c-0.24,0-0.44,0.08-0.62,0.25S24.67,11.37,24.67,11.6z"></path>
  </symbol>
  <symbol version="1.1" id="13n" xmlns="http://www.w3.org/2000/svg" xmlns:xlink="http://www.w3.org/1999/xlink" x="0px" y="0px" xml:space="preserve" viewBox="0 0 30 30">
    <path d="M4.23,16.89c0,1.33,0.47,2.48,1.4,3.44s2.07,1.47,3.4,1.53c0.12,0,0.18-0.06,0.18-0.17v-1.34c0-0.11-0.06-0.17-0.18-0.17
	c-0.86-0.05-1.59-0.39-2.19-1.03c-0.6-0.64-0.9-1.39-0.9-2.26c0-0.83,0.28-1.55,0.85-2.17c0.57-0.61,1.27-0.97,2.1-1.07l0.53-0.04
	c0.13,0,0.2-0.06,0.2-0.18l0.07-0.54c0.11-1.08,0.56-1.99,1.37-2.72c0.81-0.73,1.76-1.1,2.85-1.1c1.09,0,2.04,0.37,2.86,1.1
	c0.82,0.73,1.28,1.64,1.4,2.72l0.08,0.57c0,0.12,0.06,0.19,0.17,0.19h1.62c0.91,0,1.68,0.32,2.33,0.95c0.64,0.63,0.97,1.4,0.97,2.28
	c0,0.86-0.3,1.61-0.91,2.25c-0.61,0.64-1.34,0.99-2.19,1.04c-0.12,0-0.19,0.06-0.19,0.17v1.34c0,0.11,0.06,0.17,0.19,0.17
	c1.34-0.04,2.47-0.55,3.4-1.51c0.93-0.97,1.39-2.12,1.39-3.45c0-0.71-0.14-1.38-0.43-2.01c0.79-0.96,1.18-2.07,1.18-3.32
	c0-0.95-0.24-1.83-0.71-2.64s-1.11-1.45-1.92-1.92s-1.68-0.7-2.62-0.7c-1.55,0-2.85,0.58-3.89,1.73c-0.81-0.43-1.71-0.65-2.71-0.65
	c-1.41,0-2.67,0.44-3.76,1.32s-1.8,2-2.11,3.36c-1.11,0.26-2.02,0.84-2.74,1.74C4.59,14.71,4.23,15.74,4.23,16.89z M10.62,21.01
	c0,0.22,0.08,0.41,0.24,0.57c0.17,0.17,0.36,0.25,0.58,0.25c0.23,0,0.43-0.08,0.59-0.23s0.24-0.35,0.24-0.59
	c0-0.24-0.08-0.43-0.23-0.59c-0.16-0.16-0.35-0.23-0.59-0.23c-0.24,0-0.43,0.08-0.59,0.23C10.7,20.57,10.62,20.77,10.62,21.01z
	 M10.62,24.64c0,0.24,0.08,0.43,0.24,0.58c0.16,0.16,0.36,0.24,0.58,0.24c0.24,0,0.43-0.08,0.59-0.23c0.16-0.16,0.23-0.35,0.23-0.59
	c0-0.24-0.08-0.44-0.24-0.6s-0.35-0.25-0.59-0.25c-0.23,0-0.43,0.08-0.59,0.25S10.62,24.4,10.62,24.64z M13.81,22.9
	c0,0.23,0.08,0.44,0.25,0.61s0.36,0.27,0.58,0.27c0.23,0,0.43-0.09,0.6-0.26c0.17-0.17,0.25-0.38,0.25-0.62
	c0-0.22-0.08-0.41-0.25-0.58c-0.17-0.17-0.37-0.25-0.6-0.25c-0.22,0-0.41,0.08-0.58,0.25S13.81,22.68,13.81,22.9z M13.81,19.31
	c0,0.23,0.08,0.42,0.24,0.58s0.36,0.24,0.59,0.24c0.24,0,0.44-0.08,0.6-0.24s0.25-0.35,0.25-0.59s-0.08-0.43-0.25-0.6
	s-0.37-0.25-0.6-0.25c-0.23,0-0.42,0.08-0.59,0.25S13.81,19.08,13.81,19.31z M13.81,26.58c0,0.23,0.08,0.43,0.25,0.6
	c0.17,0.17,0.36,0.25,0.59,0.25c0.23,0,0.43-0.08,0.6-0.25c0.17-0.17,0.25-0.37,0.25-0.6c0-0.22-0.08-0.41-0.25-0.58
	c-0.17-0.17-0.37-0.25-0.6-0.25c-0.22,0-0.41,0.08-0.58,0.25C13.9,26.17,13.81,26.36,13.81,26.58z M17.05,21.01
	c0,0.21,0.08,0.4,0.24,0.57c0.17,0.17,0.37,0.25,0.6,0.25c0.23,0,0.43-0.08,0.59-0.23c0.16-0.16,0.24-0.35,0.24-0.59
	c0-0.24-0.08-0.43-0.23-0.59c-0.16-0.16-0.35-0.23-0.59-0.23c-0.24,0-0.44,0.08-0.6,0.23C17.13,20.57,17.05,20.77,17.05,21.01z
	 M17.05,24.64c0,0.22,0.08,0.42,0.24,0.58s0.36,0.24,0.6,0.24c0.24,0,0.43-0.08,0.59-0.23c0.16-0.16,0.23-0.35,0.23-0.59
	c0-0.24-0.08-0.44-0.24-0.6c-0.16-0.17-0.35-0.25-0.59-0.25c-0.23,0-0.43,0.08-0.6,0.25S17.05,24.4,17.05,24.64z M18.03,9.02
	c0.68-0.68,1.5-1.01,2.48-1.01c0.98,0,1.81,0.35,2.5,1.04s1.03,1.53,1.03,2.52c0,0.59-0.17,1.2-0.51,1.84
	c-0.96-0.96-2.13-1.44-3.5-1.44h-0.31C19.44,10.8,18.87,9.82,18.03,9.02z"></path>
  </symbol>
  <symbol version="1.1" id="50d" xmlns="http://www.w3.org/2000/svg" xmlns:xlink="http://www.w3.org/1999/xlink" x="0px" y="0px" xml:space="preserve" viewBox="0 0 30 30">
    <path d="M0.32,21.06c0,0.23,0.08,0.43,0.25,0.59c0.17,0.16,0.38,0.24,0.63,0.24h18.71c0.24,0,0.44-0.08,0.61-0.24
	c0.17-0.16,0.25-0.35,0.25-0.59c0-0.24-0.08-0.44-0.25-0.6c-0.17-0.17-0.37-0.25-0.61-0.25H1.2c-0.25,0-0.46,0.08-0.63,0.25
	S0.32,20.82,0.32,21.06z M2.94,17.92c0,0.23,0.08,0.43,0.25,0.58c0.17,0.18,0.37,0.27,0.6,0.27h18.72c0.23,0,0.43-0.08,0.59-0.25
	c0.16-0.17,0.24-0.37,0.24-0.6c0-0.23-0.08-0.43-0.23-0.59c-0.16-0.16-0.35-0.24-0.59-0.24H3.8c-0.24,0-0.44,0.08-0.6,0.24
	C3.03,17.5,2.94,17.69,2.94,17.92z M3.07,15.52c0,0.09,0.05,0.13,0.16,0.13h1.43c0.07,0,0.14-0.05,0.21-0.16
	c0.24-0.52,0.59-0.94,1.06-1.27c0.47-0.33,0.99-0.52,1.56-0.56l0.54-0.07c0.11,0,0.17-0.06,0.17-0.18l0.07-0.51
	c0.11-1.08,0.56-1.98,1.37-2.71C10.45,9.47,11.4,9.1,12.5,9.1c1.08,0,2.03,0.36,2.84,1.08c0.81,0.72,1.27,1.61,1.38,2.68l0.07,0.58
	c0,0.11,0.06,0.17,0.19,0.17h1.61c0.64,0,1.23,0.17,1.76,0.52c0.53,0.34,0.92,0.8,1.18,1.37c0.07,0.11,0.13,0.16,0.2,0.16h1.44
	c0.13,0,0.18-0.07,0.13-0.23l-0.2-0.55c0.76-0.94,1.13-2.04,1.13-3.31c0-0.71-0.14-1.38-0.41-2.03s-0.64-1.2-1.11-1.67
	c-0.46-0.47-1.02-0.84-1.67-1.12S19.72,6.35,19,6.35c-1.54,0-2.82,0.56-3.82,1.68C14.33,7.61,13.44,7.4,12.5,7.4
	c-1.4,0-2.65,0.44-3.74,1.32s-1.79,2-2.1,3.37c-1.78,0.47-2.98,1.58-3.58,3.35C3.07,15.45,3.07,15.48,3.07,15.52z M4.69,24.13
	c0,0.24,0.09,0.44,0.27,0.6c0.16,0.17,0.35,0.26,0.59,0.26h18.74c0.23,0,0.43-0.08,0.6-0.25c0.17-0.17,0.25-0.37,0.25-0.61
	c0-0.23-0.08-0.42-0.25-0.58c-0.17-0.15-0.37-0.23-0.6-0.23H5.55c-0.24,0-0.44,0.08-0.61,0.23C4.77,23.71,4.69,23.9,4.69,24.13z
	 M11.26,4.66c0,0.24,0.08,0.43,0.23,0.59l0.65,0.64c0.17,0.18,0.36,0.27,0.58,0.27c0.22,0,0.42-0.08,0.6-0.25
	c0.17-0.17,0.26-0.37,0.26-0.61c0-0.24-0.08-0.45-0.25-0.63l-0.64-0.61c-0.16-0.17-0.36-0.26-0.6-0.26c-0.24,0-0.44,0.08-0.6,0.25
	C11.34,4.21,11.26,4.42,11.26,4.66z M16.58,9.04c0.67-0.68,1.48-1.01,2.43-1.01c0.98,0,1.82,0.35,2.51,1.04
	c0.69,0.69,1.04,1.53,1.04,2.5c0,0.65-0.16,1.25-0.49,1.8c-0.95-0.95-2.11-1.42-3.47-1.42h-0.34C17.97,10.77,17.41,9.8,16.58,9.04z
	 M18.18,3.81c0,0.23,0.08,0.43,0.24,0.59c0.16,0.16,0.35,0.24,0.59,0.24c0.25,0,0.46-0.08,0.63-0.24c0.17-0.16,0.25-0.35,0.25-0.59
	V1.76c0-0.23-0.09-0.43-0.26-0.6C19.45,0.99,19.24,0.91,19,0.91c-0.23,0-0.43,0.08-0.59,0.25c-0.16,0.17-0.24,0.37-0.24,0.6V3.81z
	 M23.67,6.08c0,0.22,0.08,0.43,0.24,0.6c0.37,0.36,0.78,0.36,1.23,0l1.43-1.43c0.16-0.18,0.24-0.39,0.24-0.64
	c0-0.23-0.08-0.43-0.24-0.59c-0.16-0.16-0.36-0.24-0.59-0.24c-0.24,0-0.44,0.08-0.6,0.24l-1.46,1.47
	C23.75,5.67,23.67,5.87,23.67,6.08z M24.48,17.88c0,0.24,0.09,0.44,0.26,0.6l0.64,0.65c0.16,0.16,0.36,0.24,0.58,0.24
	c0.21,0,0.41-0.08,0.61-0.24c0.16-0.17,0.24-0.39,0.24-0.64c0-0.22-0.08-0.41-0.24-0.56l-0.65-0.66c-0.18-0.16-0.38-0.24-0.6-0.24
	c-0.24,0-0.44,0.08-0.6,0.25C24.56,17.44,24.48,17.64,24.48,17.88z M25.96,11.57c0,0.24,0.09,0.44,0.26,0.6
	c0.15,0.17,0.35,0.25,0.59,0.25h2.05c0.23,0,0.43-0.08,0.59-0.25c0.16-0.17,0.24-0.37,0.24-0.6c0-0.24-0.08-0.44-0.24-0.6
	c-0.16-0.16-0.35-0.24-0.59-0.24h-2.05c-0.24,0-0.44,0.08-0.6,0.25C26.04,11.14,25.96,11.34,25.96,11.57z"></path>
  </symbol>
  <symbol version="1.1" id="50n" xmlns="http://www.w3.org/2000/svg" xmlns:xlink="http://www.w3.org/1999/xlink" x="0px" y="0px" xml:space="preserve" viewBox="0 0 30 30">
    <path d="M2.66,20.92c0,0.23,0.08,0.42,0.25,0.57c0.17,0.16,0.38,0.23,0.62,0.23h18.61c0.24,0,0.44-0.08,0.6-0.23
	c0.17-0.16,0.25-0.35,0.25-0.57c0-0.24-0.08-0.45-0.24-0.61c-0.16-0.17-0.37-0.25-0.61-0.25H3.53c-0.24,0-0.44,0.08-0.61,0.25
	C2.75,20.48,2.66,20.69,2.66,20.92z M5.27,17.81c0,0.24,0.09,0.43,0.26,0.59c0.14,0.18,0.33,0.27,0.59,0.27h18.61
	c0.23,0,0.42-0.08,0.58-0.25s0.23-0.37,0.23-0.61c0-0.23-0.08-0.43-0.23-0.58C25.16,17.08,24.96,17,24.73,17H6.12
	c-0.24,0-0.44,0.08-0.6,0.23C5.35,17.39,5.27,17.58,5.27,17.81z M5.42,15.39v-0.05c-0.04,0.15,0,0.22,0.12,0.22h1.44
	c0.06,0,0.12-0.05,0.19-0.15c0.24-0.52,0.59-0.94,1.06-1.27c0.47-0.33,0.99-0.52,1.55-0.56l0.53-0.08c0.12,0,0.19-0.06,0.19-0.18
	l0.06-0.5c0.11-1.08,0.56-1.97,1.36-2.7c0.8-0.72,1.75-1.08,2.84-1.08c1.07,0,2.02,0.36,2.82,1.07s1.27,1.6,1.38,2.67l0.07,0.57
	c0,0.12,0.07,0.18,0.21,0.18h1.58c0.64,0,1.23,0.17,1.75,0.52c0.52,0.34,0.92,0.8,1.17,1.36c0.07,0.1,0.14,0.15,0.22,0.15h1.42
	c0.12,0,0.17-0.07,0.15-0.22c-0.22-0.56-0.37-0.91-0.46-1.06c0.72-0.65,1.23-1.51,1.5-2.57l0.17-0.66c0.03-0.06,0.02-0.12-0.01-0.16
	c-0.03-0.04-0.07-0.07-0.12-0.07l-0.62-0.22c-0.89-0.26-1.57-0.78-2.04-1.58c-0.47-0.8-0.59-1.65-0.37-2.56l0.13-0.58
	c0.05-0.09,0.01-0.17-0.13-0.23l-0.84-0.23c-1.09-0.27-2.17-0.18-3.22,0.26c-1.05,0.44-1.87,1.15-2.47,2.12
	c-0.79-0.31-1.56-0.46-2.29-0.46c-1.39,0-2.62,0.44-3.71,1.31s-1.78,1.99-2.1,3.35c-0.84,0.2-1.58,0.6-2.22,1.21
	S5.67,14.55,5.42,15.39z M7,23.97c0,0.24,0.09,0.43,0.26,0.59c0.17,0.18,0.37,0.27,0.59,0.27H26.5c0.23,0,0.43-0.08,0.59-0.25
	c0.16-0.17,0.24-0.37,0.24-0.61c0-0.23-0.08-0.42-0.24-0.58s-0.36-0.23-0.59-0.23H7.86c-0.24,0-0.44,0.08-0.6,0.23
	C7.09,23.55,7,23.74,7,23.97z M18.51,8.7c0.35-0.57,0.82-1.02,1.41-1.33c0.59-0.31,1.21-0.44,1.87-0.38
	c-0.07,1.04,0.17,2.02,0.7,2.93c0.54,0.91,1.28,1.58,2.22,2.02c-0.15,0.35-0.4,0.71-0.75,1.07c-0.92-0.76-1.97-1.13-3.14-1.13H20.5
	C20.18,10.57,19.52,9.51,18.51,8.7z"></path>
  </symbol>
</svg>